<svg width="45" height="51" viewBox="0 0 45 51" fill="none" xmlns="http://www.w3.org/2000/svg">
<path d="M5.81249 21.6047C5.41843 21.2086 5.12803 20.7215 4.96693 20.1865C4.80584 19.6516 4.77902 19.0851 4.88885 18.5373C4.99868 17.9895 5.24176 17.4772 5.59663 17.0456C5.9515 16.614 6.40721 16.2766 6.92349 16.063C7.43977 15.8494 8.00072 15.7663 8.55675 15.821C9.11279 15.8757 9.64678 16.0665 10.1115 16.3766C10.5763 16.6867 10.9575 17.1066 11.2215 17.599C11.4854 18.0914 11.624 18.6413 11.625 19.2H9.62811C9.62661 18.9697 9.56854 18.7432 9.45903 18.5406C9.34951 18.3379 9.19189 18.1653 9.00003 18.0379C8.80816 17.9104 8.58792 17.832 8.35867 17.8096C8.12942 17.7872 7.89818 17.8215 7.68527 17.9094C7.47235 17.9973 7.28429 18.1361 7.13761 18.3137C6.99093 18.4913 6.89013 18.7022 6.84406 18.9279C6.79799 19.1536 6.80806 19.3872 6.87339 19.608C6.93872 19.8289 7.05731 20.0304 7.21874 20.1947C7.48791 20.4511 7.84272 20.5985 8.21436 20.6081C9.10745 20.6517 9.95771 21.004 10.62 21.6047C11.0154 22.0003 11.3071 22.4873 11.4694 23.0225C11.6316 23.5577 11.6594 24.1247 11.5501 24.6733C11.4409 25.2218 11.1982 25.7349 10.8433 26.1672C10.4884 26.5995 10.0324 26.9376 9.51569 27.1516C8.99895 27.3656 8.43741 27.4489 7.88081 27.394C7.32421 27.3392 6.78973 27.1479 6.32469 26.8372C5.85966 26.5264 5.47843 26.1058 5.21477 25.6126C4.95111 25.1193 4.81315 24.5687 4.81311 24.0094H6.80999C6.81071 24.2402 6.86822 24.4672 6.97743 24.6705C7.08665 24.8738 7.24422 25.0471 7.43624 25.1751C7.62826 25.3031 7.84883 25.3819 8.07849 25.4045C8.30815 25.4271 8.53985 25.3928 8.75314 25.3047C8.96642 25.2166 9.15475 25.0773 9.30151 24.8992C9.44826 24.7211 9.54893 24.5097 9.59463 24.2835C9.64033 24.0573 9.62966 23.8233 9.56356 23.6022C9.49746 23.3811 9.37796 23.1796 9.21561 23.0156C8.93253 22.7809 8.58519 22.6372 8.21905 22.6031C7.33107 22.5348 6.48803 22.185 5.81249 21.6047Z" fill="#00D8FF"/>
<path d="M18.4228 15.7988L16.0172 27.4125H14.025L11.625 15.7988H13.6125L15.0188 22.6003L16.425 15.7988H18.4228Z" fill="#00D8FF"/>
<path d="M21.825 20.6091H25.2262V24.0103C25.2262 24.9125 24.8678 25.7777 24.2299 26.4157C23.5919 27.0536 22.7267 27.412 21.8245 27.412C20.9223 27.412 20.0571 27.0536 19.4191 26.4157C18.7812 25.7777 18.4228 24.9125 18.4228 24.0103V19.2C18.4228 18.2978 18.7812 17.4326 19.4191 16.7946C20.0571 16.1567 20.9223 15.7983 21.8245 15.7983C22.7267 15.7983 23.5919 16.1567 24.2299 16.7946C24.8678 17.4326 25.2262 18.2978 25.2262 19.2H23.234C23.234 18.8264 23.0856 18.4681 22.8215 18.204C22.5573 17.9398 22.199 17.7914 21.8254 17.7914C21.4519 17.7914 21.0936 17.9398 20.8294 18.204C20.5653 18.4681 20.4169 18.8264 20.4169 19.2V24.0094C20.4169 24.383 20.5653 24.7412 20.8294 25.0054C21.0936 25.2696 21.4519 25.418 21.8254 25.418C22.199 25.418 22.5573 25.2696 22.8215 25.0054C23.0856 24.7412 23.234 24.383 23.234 24.0094V22.6031H21.8278V20.6091H21.825Z" fill="#00D8FF"/>
<g clip-path="url(#clip0_623_282)">
<path fill-rule="evenodd" clip-rule="evenodd" d="M23.4029 9.13622H8.3895C5.49082 9.13622 3.14098 11.4762 3.14098 14.3628V29.3135C3.14098 32.2001 5.49082 34.5401 8.3895 34.5401H23.4029C26.3016 34.5401 28.6514 32.2001 28.6514 29.3135V14.3628C28.6514 11.4762 26.3016 9.13622 23.4029 9.13622ZM8.3895 8C4.86068 8 2 10.8487 2 14.3628V29.3135C2 32.8276 4.86068 35.6763 8.3895 35.6763H23.4029C26.9317 35.6763 29.7924 32.8276 29.7924 29.3135V14.3628C29.7924 10.8487 26.9317 8 23.4029 8H8.3895Z" fill="#00D8FF"/>
</g>
<rect x="16.6276" y="22.4551" width="27.7125" height="27.596" rx="10.9077" fill="#00D8FF"/>
<path d="M31.0974 43.1854C30.9213 43.0303 30.7376 42.8748 30.5621 42.7025C30.4218 42.8316 30.2904 42.9525 30.1513 43.073C28.4146 44.5638 26.6246 45.1844 25.5634 44.5811C24.537 44.0037 24.2136 42.2979 24.6244 40.1519C24.6682 39.9192 24.7208 39.6866 24.7823 39.454C24.598 39.4 24.4225 39.3503 24.247 39.292C22.062 38.5492 20.6235 37.3431 20.6235 36.1364C20.6235 34.9735 21.9657 33.8445 24.0621 33.1207C24.2969 33.043 24.5446 32.9657 24.7993 32.8966C24.7406 32.6724 24.6942 32.4569 24.6502 32.2484C24.2112 30.07 24.5182 28.3296 25.5535 27.7436C26.6322 27.1229 28.4223 27.7868 30.2199 29.3462C30.325 29.4407 30.4306 29.5444 30.5445 29.6476C30.7112 29.4926 30.8691 29.3375 31.0357 29.1998C32.7378 27.7414 34.4304 27.1316 35.4657 27.7176C36.5444 28.3204 36.8608 30.1818 36.3783 32.4828C36.3519 32.6298 36.3196 32.7675 36.2821 32.915C36.5016 32.9754 36.7205 33.044 36.9224 33.1132C39.0628 33.837 40.4491 34.9659 40.4315 36.1548C40.4315 37.3696 38.949 38.5676 36.6753 39.3087C36.5526 39.3433 36.43 39.3865 36.3067 39.4205C36.3596 39.5928 36.3942 39.7651 36.4294 39.9374C36.8854 42.1693 36.5345 43.9961 35.4733 44.5995C35.1946 44.7539 34.8742 44.8325 34.549 44.8263C33.5765 44.8247 32.3416 44.2354 31.0974 43.1854ZM32.817 40.0228C32.3131 40.7442 31.7593 41.435 31.159 42.091C31.3257 42.2531 31.4924 42.4016 31.659 42.5393C33.1063 43.7628 34.4398 44.2197 35.0631 43.8665C35.2534 43.7156 35.409 43.5311 35.5205 43.3239C35.6319 43.1168 35.6971 42.8911 35.7122 42.6603C35.8388 41.8052 35.8031 40.9363 35.6066 40.0925C35.5801 39.9374 35.5479 39.7824 35.5015 39.6187C34.6176 39.8091 33.7207 39.9441 32.817 40.0228ZM25.4654 40.2988C25.1062 42.1353 25.3692 43.504 25.9936 43.8578C26.2149 43.9429 26.4538 43.9822 26.6933 43.9729C26.9329 43.9635 27.1673 43.9058 27.3799 43.8038C28.2071 43.4839 28.9605 43.0217 29.5996 42.4421C29.7311 42.3384 29.8537 42.2179 29.9858 42.0975C29.3723 41.4413 28.8038 40.7506 28.2838 40.0293C27.3835 39.9601 26.4894 39.8337 25.6081 39.6512C25.5535 39.8764 25.5095 40.0914 25.4654 40.2988ZM30.5715 41.5049C30.9577 41.0825 31.3433 40.6175 31.7295 40.1006C31.3433 40.1178 30.9401 40.1265 30.5363 40.1265C30.1325 40.1265 29.7557 40.1178 29.3783 40.1006C29.7727 40.6083 30.1683 41.0825 30.5715 41.5049ZM28.7286 33.0948C28.3953 33.5685 28.0707 34.0671 27.7638 34.5943C27.4568 35.1112 27.1768 35.6368 26.9215 36.1607C27.1851 36.6776 27.4656 37.2032 27.7726 37.7379C28.0795 38.2549 28.4041 38.7642 28.7374 39.2455C29.3161 39.2801 29.9218 39.2995 30.5357 39.2995C31.1496 39.2995 31.7635 39.2822 32.3516 39.2396C32.6673 38.7658 32.9919 38.257 33.2994 37.7315C33.607 37.2059 33.8957 36.6717 34.1504 36.1548C33.8957 35.6465 33.6064 35.1209 33.2994 34.5948C32.9925 34.0687 32.6679 33.5685 32.3434 33.0954C31.7565 33.0521 31.1502 33.0262 30.5363 33.0262C29.9224 33.0262 29.3167 33.0516 28.7286 33.0948ZM25.834 38.8593C26.4359 38.9858 27.0451 39.0809 27.6587 39.144C27.448 38.8166 27.2379 38.4888 27.036 38.1441C26.8429 37.8082 26.6498 37.4722 26.4743 37.1362C26.2202 37.7217 26.0095 38.3002 25.834 38.8593ZM34.036 38.1355C33.8341 38.4801 33.6322 38.8074 33.4309 39.1267C34.0537 39.0549 34.6717 38.9513 35.282 38.8166C35.0914 38.235 34.8689 37.6626 34.6153 37.1016C34.431 37.4463 34.2379 37.7909 34.036 38.1355ZM24.3339 33.9131C22.5444 34.5338 21.4657 35.4374 21.4657 36.145C21.4998 36.3727 21.5824 36.5919 21.7088 36.7901C21.8352 36.9882 22.0029 37.1615 22.2022 37.2999C22.8869 37.8298 23.6721 38.2387 24.5182 38.506C24.676 38.5601 24.8427 38.6011 25.0094 38.653C25.2789 37.8054 25.604 36.9736 25.9831 36.1623C25.6033 35.3649 25.281 34.5454 25.0182 33.709C24.7815 33.7673 24.5534 33.8354 24.3339 33.9131ZM35.0977 36.145C35.487 36.946 35.8202 37.7691 36.0954 38.6092C36.2099 38.5746 36.3238 38.5401 36.4288 38.5055C38.385 37.8681 39.5981 36.8942 39.6045 36.1359C39.6045 35.4293 38.4818 34.5154 36.6483 33.8953C36.464 33.8354 36.2627 33.7749 36.0614 33.7144C35.7956 34.5423 35.4738 35.3541 35.0977 36.145ZM34.0278 34.1632C34.2297 34.5079 34.4228 34.8444 34.5977 35.1803C34.8414 34.6313 35.0522 34.0703 35.2292 33.4999C34.6333 33.3667 34.0301 33.2632 33.4221 33.1899C33.6328 33.508 33.8347 33.8273 34.0278 34.1632ZM25.8428 33.4929C26.0189 34.0444 26.229 34.6045 26.4743 35.1814C26.6504 34.8454 26.8429 34.5095 27.036 34.1735C27.2291 33.8375 27.4304 33.5102 27.6411 33.191C27.0096 33.2671 26.4133 33.3703 25.8428 33.4929ZM31.5886 29.8307C31.4395 29.9598 31.2905 30.0975 31.1408 30.2358C31.75 30.8837 32.3098 31.5695 32.8164 32.2884C33.7091 32.3677 34.5945 32.506 35.4657 32.7021C35.5009 32.573 35.5244 32.4434 35.5537 32.3143C35.9646 30.3325 35.7116 28.8158 35.0449 28.4371C34.8985 28.3615 34.7325 28.3242 34.5648 28.3291C33.8482 28.3258 32.7483 28.8395 31.5886 29.8291V29.8307ZM25.9743 28.4587C25.3516 28.812 25.1057 30.225 25.4742 32.0864C25.5183 32.2846 25.5623 32.4823 25.6145 32.6892C26.4869 32.5002 27.3719 32.3649 28.2638 32.2841C28.7722 31.5643 29.3351 30.8784 29.9482 30.2315C29.852 30.1364 29.7463 30.0505 29.6501 29.9641C28.4293 28.9016 27.2555 28.341 26.489 28.341C26.3089 28.3353 26.1306 28.3761 25.9743 28.4587ZM31.7113 32.2155C31.3495 31.7337 30.9592 31.2706 30.5422 30.8284C30.1478 31.2502 29.7528 31.7158 29.3683 32.2155C29.7545 32.1982 30.1401 32.1895 30.5351 32.1895C30.9301 32.1895 31.3251 32.1966 31.7113 32.2155ZM28.7814 36.1796C28.7732 35.9581 28.8126 35.7374 28.8972 35.5299C28.9819 35.3225 29.1102 35.1324 29.2748 34.9707C29.4394 34.809 29.6371 34.6788 29.8564 34.5875C30.0758 34.4962 30.3127 34.4456 30.5533 34.4387C31.0389 34.4539 31.4981 34.6457 31.8302 34.9721C32.1624 35.2984 32.3404 35.7327 32.3252 36.1796C32.3408 36.6269 32.163 37.0617 31.8307 37.3884C31.4983 37.7151 31.0387 37.9071 30.5527 37.9221C30.3119 37.9152 30.075 37.8646 29.8555 37.7732C29.636 37.6818 29.4383 37.5514 29.2738 37.3895C29.1092 37.2276 28.981 37.0374 28.8965 36.8298C28.812 36.6221 28.7729 36.4012 28.7814 36.1796Z" fill="#1E2235"/>
<defs>
<clipPath id="clip0_623_282">
<rect width="27.7125" height="27.596" fill="white" transform="translate(2 8)"/>
</clipPath>
</defs>
</svg>

